<?xml version="1.0" encoding="utf-8"?>
<!-- Generator: Adobe Illustrator 18.0.0, SVG Export Plug-In . SVG Version: 6.00 Build 0)  -->
<!DOCTYPE svg PUBLIC "-//W3C//DTD SVG 1.1//EN" "http://www.w3.org/Graphics/SVG/1.1/DTD/svg11.dtd">
<svg version="1.1" id="Layer_1" xmlns="http://www.w3.org/2000/svg" xmlns:xlink="http://www.w3.org/1999/xlink" x="0px" y="0px"
	 viewBox="0 447.3 1920 552.5" enable-background="new 0 447.3 1920 552.5" xml:space="preserve">
<g>
	<polygon fill="#FFFFFF" points="494.7,953.5 465.1,953.5 465.1,970.4 491.6,970.4 491.6,975.6 465.1,975.6 465.1,992.7 
		495.3,992.7 495.3,997.6 459.6,997.6 459.6,948.6 494.7,948.6 	"/>
	<path fill="#FFFFFF" d="M528,954.8l-11.3,25H539L528,954.8z M552.7,997.6h-5.8l-5.8-12.8h-26.6l-5.8,12.8h-5.8l22.3-49.5h5.2
		L552.7,997.6z"/>
	<polygon fill="#FFFFFF" points="652.2,953.5 622.3,953.5 622.3,970.4 648.9,970.4 648.9,975.6 622.3,975.6 622.3,992.7 
		652.5,992.7 652.5,997.6 616.8,997.6 616.8,948.6 652.2,948.6 	"/>
	<rect x="852.9" y="948.6" fill="#FFFFFF" width="5.5" height="48.8"/>
	<polygon fill="#FFFFFF" points="963.4,953.5 933.5,953.5 933.5,970.4 960.4,970.4 960.4,975.6 933.5,975.6 933.5,992.7 
		963.7,992.7 963.7,997.6 928,997.6 928,948.6 963.4,948.6 	"/>
	<polygon fill="#FFFFFF" points="1037.9,997.6 1032.4,997.6 1032.4,953.8 1015.9,953.8 1015.9,948.6 1054.4,948.6 1054.4,953.8 
		1037.9,953.8 	"/>
	<g>
		<path fill="#FFFFFF" d="M992.4,970.4c11,2.4,15.9,6.4,15.9,14c0,8.5-7,14-16.8,14c-7.6,0-14-2.4-20.1-7.9l3.4-4
			c5.2,4.6,10.1,7,16.8,7s11-3.4,11-8.2c0-4.6-2.4-7.3-12.8-9.5c-11.3-2.4-16.5-6.1-16.5-14s6.7-13.4,16.2-13.4
			c7,0,12.2,2.1,17.1,6.1l-3.4,4.3c-4.6-3.7-9.2-5.2-14-5.2c-6.4,0-10.4,3.4-10.4,7.9C979.3,965.5,981.7,968.3,992.4,970.4"/>
	</g>
	<path fill="#FFFFFF" d="M429.3,953.8h-15v19.8h15c7.3,0,12.5-3.7,12.5-10.1C441.9,957.2,437.3,953.8,429.3,953.8 M442.5,997.6
		l-14-18.9h-14v18.9H409v-48.8h21.1c10.7,0,17.7,5.8,17.7,14.7c0,8.2-5.5,12.8-13.4,14.3l15,20.1h-6.7v-0.3H442.5z"/>
	<path fill="#FFFFFF" d="M578.9,953.8h-11.6v38.8h11.6c12.5,0,20.1-8.5,20.1-19.2C599.4,962.4,591.5,953.8,578.9,953.8 M578.9,997.6
		h-17.1v-48.8h17.1c15.3,0,26,10.7,26,24.4S594.5,997.6,578.9,997.6"/>
	<path fill="#FFFFFF" d="M683.4,953.8h-15v19.8h15c7.3,0,12.5-3.7,12.5-10.1C695.9,957.2,691.3,953.8,683.4,953.8 M696.5,997.6
		l-14-18.9h-14v18.9h-5.8v-48.8h21.1c10.7,0,17.7,5.8,17.7,14.7c0,8.2-5.5,12.8-13.4,14.3l15,20.1h-6.4v-0.3H696.5z"/>
	<path fill="#FFFFFF" d="M715.7,956h-2.4v-7.3h6.4v6.4c0,5.8-2.4,8.2-7.6,9.5l-0.9-2.4C714.5,960.9,716,959,715.7,956"/>
	<path fill="#FFFFFF" d="M750,970.4c11,2.4,15.9,6.4,15.9,14c0,8.5-7,14-16.8,14c-7.6,0-14-2.4-20.1-7.9l3.4-4
		c5.2,4.6,10.1,7,16.8,7s11-3.4,11-8.2c0-4.6-2.4-7.3-12.8-9.5c-11.3-2.4-16.5-6.1-16.5-14s6.7-13.4,16.2-13.4
		c7,0,12.2,2.1,17.1,6.1l-3.4,4.3c-4.6-3.7-9.2-5.2-14-5.2c-6.4,0-10.4,3.4-10.4,7.9C736.6,965.5,739.3,968.3,750,970.4"/>
	<path fill="#FFFFFF" d="M815,953.8h-11.6v38.8H815c12.5,0,20.1-8.5,20.1-19.2C835.5,962.4,827.5,953.8,815,953.8 M815,997.6h-17.1
		v-48.8H815c15.3,0,26,10.7,26,24.4C841.3,986.9,830.6,997.6,815,997.6"/>
	<path fill="#FFFFFF" d="M895.3,998.5c-15.3,0-25-11.3-25-25.3c0-13.4,9.8-25.3,24.4-25.3c8.2,0,13.4,2.4,18.3,6.4l-3.7,4.3
		c-3.7-3.4-7.9-5.5-15-5.5c-11,0-18.6,9.2-18.6,20.1c0,11.9,7.6,20.5,19.2,20.5c5.5,0,10.7-2.1,14-4.9v-12.2h-14.3v-4.9h20.1v19.5
		C910.6,995.2,903.6,998.5,895.3,998.5"/>
	<path fill="#FFFFFF" d="M1441.9,577.7c-6.4,12.8-12.8,23.5-19.8,31.1c-7.6,7.6-15.9,11.6-26.9,11.6c-10.1,0-23.5-4-36.3-8.2
		c-12.8-4.6-26.6-8.9-35.7-8.9c-15.3,0-22.9,7.6-33,22.9l-8.9-5.8c9.5-17.7,21.7-44,51-44c10.7,0,23.5,4,35.7,8.9
		c12.2,4,24.7,8.2,34.2,8.2c12.8,0,18.3-4.6,30.5-20.5L1441.9,577.7z"/>
	<path fill="#FFFFFF" d="M1899,725.8c0-28.1-19.5-61.7-60.8-61.7c-23.8,0-48.5,13.7-44.9,46.1c2.4,21.1,35.1,28.4,53.1,34.2
		c52.5,16.5,73.6,36.3,73.6,75.4c0,38.2-32.4,66.2-90.1,66.2c-28.4,0-59.8-5.5-78.8-22.9l-6.7-56.5h5.5
		c8.2,50.4,30.2,69.9,82.1,71.4c33.3,0.9,43-18,43-41.5c-0.3-23.5-25.3-33.6-55.3-43.4c-42.7-13.7-69.3-30.2-69.3-70.8
		c0-41.8,36.3-67.5,89.8-67.5c20.8,0,46.1,7.6,63.2,17.7v53.7h-4.6v-0.4H1899z"/>
	<path fill="#FFFFFF" d="M1615,662.9c60.8-0.3,58.3,80.6,58.3,80.9c0,11.6-10.7,10.4-10.7,10.4l0,0h-90.7l0,0c0,0-10.7,0.6-10.7-11
		c0-0.3,0-0.3,0-0.3C1562.2,715.7,1569.2,663.2,1615,662.9 M1571.3,764.3h77.2h50.4h20.5c0,0,2.4-18-2.1-39.4
		c-2.4-12.2-7.3-26.3-17.4-38.5c0,0,0-0.3-0.3-0.3c-14.7-18-40-32.1-83-32.1c-77.9,0-118.5,50.4-118.5,118.1
		c0,70.5,35.7,114.8,118.8,114.8c55.3,0,84.3-26,98.9-62.3l-5.8-3.1c-19.5,38.5-43.4,53.4-81.8,53.4c-56.2,0-67.8-52.8-68.4-98
		c0-0.3,0-0.9,0-1.2C1560.4,768.5,1565.2,764.3,1571.3,764.3"/>
	<path fill="#FFFFFF" d="M876.4,662.9c60.8-0.3,58.3,80.6,58.3,80.9c0,11.6-10.7,10.4-10.7,10.4l0,0h-90.7l0,0c0,0-10.7,0.6-10.7-11
		c0-0.3,0-0.3,0-0.3C823.6,715.7,830.9,663.2,876.4,662.9 M833,764.3h77.2h50.4h20.5c0,0,2.4-18-2.1-39.4
		c-2.4-12.2-7.3-26.3-17.4-38.5c0,0,0-0.3-0.3-0.3c-14.7-18-40-32.1-83-32.1c-77.9,0-118.5,50.4-118.5,118.1
		c0,70.5,35.7,114.8,118.8,114.8c55.3,0,84.3-26,98.9-62.3l-5.8-3.1c-19.5,38.5-43.4,53.4-81.8,53.4c-56.2,0-67.8-52.8-68.4-98
		c0-0.3,0-0.9,0-1.2C822.1,768.5,826.6,764.3,833,764.3"/>
	<path fill="#FFFFFF" d="M529.2,662.9c60.8-0.3,58.3,80.6,58.3,80.9c0,11.6-10.7,10.4-10.7,10.4l0,0h-90.7l0,0c0,0-10.7,0.6-10.7-11
		c0-0.3,0-0.3,0-0.3C476.4,715.7,483.4,663.2,529.2,662.9 M485.5,764.3h77.2h50.4h20.5c0,0,2.4-18-2.1-39.4
		c-2.4-12.2-7.3-26.3-17.4-38.5c0,0,0-0.3-0.3-0.3c-14.7-18-40-32.1-83-32.1c-77.9,0-118.5,50.4-118.5,118.1
		c0,70.5,35.7,114.8,118.8,114.8c55.3,0,84.3-26,98.9-62.3l-5.8-3.1c-19.5,38.5-43.4,53.4-81.8,53.4c-56.2,0-67.8-52.8-68.4-98
		c0-0.3,0-0.9,0-1.2C474.8,768.5,479.4,764.3,485.5,764.3"/>
	<path fill="#FFFFFF" d="M1424.2,770.4c0-62.3-19.8-100.4-62.6-100.4c-42.1,0-62.6,38.2-62.6,100.4c0,62.9,20.5,100.4,62.6,100.4
		C1404.4,870.8,1424.2,833.2,1424.2,770.4 M1472.4,770.4c0,73.3-36,116.3-110.8,116.3c-74.2,0-110.8-42.7-110.8-116.3
		c0-72.7,36.6-116.3,110.2-116.3C1436.1,654,1472.4,697.7,1472.4,770.4"/>
	<path fill="#FFFFFF" d="M1229.4,821.3l-6.1-2.4c-16.2,31.1-46.1,51-84.3,51c-62.6,0-76.9-62.9-76.9-105.6
		c0-66.9,30.5-94.6,66.6-94.6c24.4,0,39.4,15.3,50.4,39.4c2.7,7.6,6.1,11.6,15.6,11.6c11,0,36-6.4,31.1-22.9
		c-5.8-20.5-34.8-44-91-44c-68.7,0-127,44.6-127,118.5c0,71.1,37.6,108.4,106.9,113.3l-18.3,33.3l1.8,3.1
		c8.2,0.6,35.7,2.4,35.7,24.7c0,18.3-25,26-47.3,26v11c6.4,0.6,11.6,1.2,19.8,1.2c14,0,55.3-4.6,55.3-40c0-28.7-23.5-36.9-40-39.4
		l11.3-19.5C1168.9,885.8,1208,871.7,1229.4,821.3"/>
	<path fill="#FFFFFF" d="M744.2,869.9c-18,0-19.2-2.4-19.2-16.5v-15.6l0,0V722.7V546.3l-90.4,9.8v8.2l36-2.1v7.3v284
		c0,14-1.2,16.5-19.2,16.5H644v11h26.9h54h26.9v-11H744.2z"/>
	<path fill="#FFFFFF" d="M356.7,617.4c0-67.2-45.2-147.2-140.1-147.2c-54.6,0-129.8,32.7-121.2,109.9
		c5.5,50.1,98.9,90.4,140.4,104.4c115.1,39.1,155.7,97.4,155.7,157.2c0,91-61.1,158.1-194.2,158.1c-65.3,0-138-13.4-182-55L0,810.4
		h12.5c19.2,120,69.6,167,189.6,170.4c76.9,2.1,99.2-43.4,99.2-99.2c0-72.7-58.3-95.9-127.3-119.4C75.4,729.4,14.3,671.4,14.3,608.6
		c0-100.1,83.7-161.2,207.3-161.2c47.6,0,106.5,18.6,145.9,42.1v127.9H356.7L356.7,617.4z"/>
</g>
</svg>
